# xmcd CD database file
#
# Track frame offsets:
#	150
#	11482
#	25487
#	38252
#	53562
#	65455
#	79637
#	96382
#	109270
#	120010
#	135447
#	144552
#	161047
#	172880
#	183405
#	197537
#	210510
#	222140
#	248897
#	266777
#
# Disc length: 3713 seconds
#
# Revision: 11
# Processed by: cddbd v1.4PL0 Copyright (c) Steve Scherf et al.
# Submitted via: CDex 1.40Release
#
DISCID=080e7f14
DTITLE=Charles Aznavour - 40 chansons d'or [CD2]
DYEAR=1996
DGENRE=Easy Listening
TTITLE0=Sur ma vie
TTITLE1=J'en déduis que je t'aime
TTITLE2=Parce que
TTITLE3=Je m'voyais déjà
TTITLE4=Que c'est triste Venise
TTITLE5=Il faut savoir
TTITLE6=L'amour c'est comme un jour
TTITLE7=Et pourtant
TTITLE8=Hier encore
TTITLE9=Paris au mois d'août
TTITLE10=Après l'amour
TTITLE11=Qui?
TTITLE12=Le temps
TTITLE13=For me formidable
TTITLE14=Avec
TTITLE15=Plus bleu que tes yeux
TTITLE16=L'amour et la guerre
TTITLE17=Les plaisirs démodés
TTITLE18=Mourir d'aimer
TTITLE19=Jezebel
EXTD=YEAR: 1996 ID3G: 98
EXTT0=
EXTT1=
EXTT2=
EXTT3=
EXTT4=
EXTT5=
EXTT6=
EXTT7=
EXTT8=
EXTT9=
EXTT10=
EXTT11=
EXTT12=
EXTT13=
EXTT14=
EXTT15=
EXTT16=
EXTT17=
EXTT18=
EXTT19=
PLAYORDER=
